<svg 
          width="325" 
          height="308" fill="none" 
          xmlns="http://www.w3.org/2000/svg">
          <path d="M 324.92597797309094 182.3144513775567 C 324.4325278967929 199.6923704054073 320.8550149649564 216.8354535794165 314.1934391334636 233.74369955583762 C 307.53186330197076 250.65194553225874 294.4554371403717 261.6892726548881 274.9641592368946 266.85568125966233 C 255.4728813334175 272.02208986443657 239.68248030365274 281.06330416693396 227.59295332405657 293.97932584683787 C 215.5034263444604 306.8953475267418 200.45320040708378 310.887571823259 182.44227268838284 305.95600008013616 C 164.4313449696819 301.0244283370133 147.0372302985617 299.49798940815253 130.25992867502222 301.3766834615221 C 113.48262705148275 303.2553775148916 98.80248724852822 298.79347899116664 86.21951067793063 287.9909887301887 C 73.63653410733303 277.18849846921074 58.21622203553433 268.96921200671494 39.95857022721866 263.3331300145746 C 21.70091841890299 257.6970480224342 9.98147898550085 246.65972123574153 4.8002533387841915 230.2211483107499 C -0.38097230793246606 213.78257538575826 -1.3678727252357477 197.34400380451325 1.8395527927603221 180.90543087952162 C 5.046978310756392 164.46685795452998 7.884316282558414 148.96762172617068 10.351566531694896 134.40774369439026 C 12.818816780831378 119.84786566260985 15.409429604189706 104.46605811114452 18.123405001769882 88.26232238374095 C 20.837380399350057 72.05858665633738 28.362494250395834 58.32063680049522 40.69874531960675 47.04847281621448 C 53.03499638881767 35.77630883193373 67.59177132342091 28.613790766394214 84.3690729469604 25.560912908672623 C 101.14637457049989 22.508035050951033 117.18350251342322 16.75453479595329 132.4804539521865 8.30041180774273 C 147.7774053909498 -0.1537111804678304 163.81453333387313 -2.1498238326314327 180.5918349574126 2.3120745231252515 C 197.36913658095207 6.773972878881936 213.77635207006946 11.940381651624499 229.81347860122085 17.811300169479612 C 245.85060513237224 23.682218687334725 260.53074493532677 32.25376027433932 273.8538965983125 43.525924258620066 C 287.1770482612982 54.79808824290081 296.92268721303674 68.30119821366158 303.0908127476422 84.03526088963568 C 309.25893828224764 99.76932356560978 314.5635266796576 115.73822209542527 319.0045772339862 131.94195782282884 C 323.44562778831477 148.1456935502324 325.41942804938896 164.9365323497061 324.92597797309094 182.3144513775567 Z" fill="rgb(255,255,255)"/>
        </svg>